#format: frame checksums
#version: 2
#hash: MD5
#tb 0: 1/25
#media_type 0: video
#codec_id 0: h264
#dimensions 0: 640x360
#sar 0: 1/1
#stream#, dts,        pts, duration,     size, hash
0,         -1,          0,        1,    16720, dfcb2014e3c62eda89834148072c800e
0,          0,          1,        1,     3621, bd7c8e6a1e3aa43d803ee303e993534d
0,          1,          2,        1,     4277, 7ae4755b31d02e19e5c93faabfa9fe25
0,          2,          3,        1,     3747, 16c4e3e496eaa4ee061ffb9cbfe42b84
0,          3,          4,        1,     4857, 5ab2200d8ebbdcebeab265b7efa5cdd4
0,          4,          5,        1,     3873, fffb2c22ea1cee4c8874671e6408a59f
0,          5,          6,        1,     4331, 622915f5131b5fa47e4e9a4cf5d29dd2
0,          6,          7,        1,     3655, 54fa1edb383e3abbf6df002747618ea3
0,          7,          8,        1,     4688, 2df8ecbbfa34761b98afba588cc79a56
0,          8,          9,        1,     3667, 68c8642358fb151587766eb292a283db
0,          9,         10,        1,     4089, d65f172c2ceba65424bf633b77f19699
0,         10,         11,        1,     3774, 636d06b5265128ca4362bfa0a1643413
0,         11,         12,        1,    15926, 07964558d077d9314ea2738ecf78e8e4
0,         12,         13,        1,     3841, a8b10ef32391e55b9f93efb5557074cc
0,         13,         14,        1,     4182, 5d408c4e45128aa0520aac2d58336ebc
0,         14,         15,        1,     4023, 772b98148975f7b974263978df4c651e
0,         15,         16,        1,     4387, 108e283f3672688ad666168ae4cf0de3
0,         16,         17,        1,     3978, 93eb8a93adc9d8a449cc1c10a545394c
0,         17,         18,        1,     4405, 5c499cc9fb08054f4f0896381fd1ef87
0,         18,         19,        1,     4143, a6af9509b8ccd5cded0ff8fca58c956d
0,         19,         20,        1,     4355, 8b748dbb2a70dd976f2595ec159e35f3
0,         20,         21,        1,     5334, e2640fc9a8a9911906849c37b11e38d3
0,         21,         22,        1,     5076, 2820a025a6538faa49b4fe7837a312dd
0,         22,         23,        1,     5044, 6d5a1e3889990af528a9cdf726115aeb
0,         23,         24,        1,    15727, 9c5eb977b15a3712be5cd4aab0552f8c
0,         24,         25,        1,     3540, f3eb8aaea4feb9799822dfe5eaefd95a
0,         25,         26,        1,     4095, 9fff219aba00eeacc8fa2b0f98e2691e
0,         26,         27,        1,     3916, cc03df39ac59cf71be8a93672dd7c014
0,         27,         28,        1,     4214, 16ed2f75a8ba7ef88345cd982eb401a5
0,         28,         29,        1,     3640, f07918a9d5bbc985f0272c2cb36f3c4c
0,         29,         30,        1,     4123, cf8d68616c7c0970613be64d48594eb6
0,         30,         31,        1,     4018, 35fa015719a162fc2798493d2d25503b
0,         31,         32,        1,     4152, df2ea95055ea8d54c2ee58050c3ae154
0,         32,         33,        1,     3825, 7a9274f521c5de71c7ffc4f3872852cc
0,         33,         34,        1,     4486, ad8f3bf7409af236c458dba30f82ca8a
0,         34,         35,        1,     4726, f56da0e1d546dc77405942f86a613f5c
0,         35,         36,        1,    15025, 9be04d3307850f202119ca4337e36fa0
0,         36,         37,        1,     4134, 0382785bd86fe0951b1789caf393604a
0,         37,         38,        1,     4453, 81b6a167a8cc82edc49ad0aa8bc996b7
0,         38,         39,        1,     4371, 931108dad77299a8242bd6e84025fe42
0,         39,         40,        1,     4161, 9dcd35be4107300737f9e27fecfdf7d9
0,         40,         41,        1,     3733, 4c104d5844230947bf6bd03d9d11e384
0,         41,         42,        1,     4293, cafe9200821b6d7570d20cb3306f5e70
0,         42,         43,        1,     4095, 5219a7b4968be64286bc5b93a884abbc
0,         43,         44,        1,     4117, e9a98f6efc015271fd5ebb4d77d7d45d
0,         44,         45,        1,     5330, b4ac37e83e2ad46fb74e5d10dd1c5e43
0,         45,         46,        1,     5125, a13cec6f98f765ebac21479bb9dc3423
0,         46,         47,        1,     5089, 0cbcada968903b262bf82a3fcf0902a9
0,         47,         48,        1,    15395, 12933038dc03e9e798eff8d1e342800c
0,         48,         49,        1,     3580, 98ac3bc61f7eb2d3cd024aa972038124
0,         49,         50,        1,     4044, ac744bbc77694837ed368012968fb2d5
0,         50,         51,        1,     4193, 0c835c943fb47985c9e96cbee870715a
0,         51,         52,        1,     4335, faa5b29fdfffe34e420eab6b565dd951
0,         52,         53,        1,     3881, 3be83d5d8f6fff996fc7febb75f68ad9
0,         53,         54,        1,     4245, 89a2fb5f71643d9eead5c869e2197385
0,         54,         55,        1,     4212, 6773ae4fa24a0e47da8159886341b73c
0,         55,         56,        1,     4945, 73bf99f4de145ce89789a4f3ee5b6d45
0,         56,         57,        1,     4055, 0545842d39e2ab21f5abf012b21dd82e
0,         57,         58,        1,     4534, 9e4b757f3a7ac7cbf542382b01a46615
0,         58,         59,        1,     3794, 6a48d46d7f3702cab563b4cd67019c2b
0,         59,         60,        1,    14277, f1fb076460983a57c4dca8409f4c92cf
0,         60,         61,        1,     4319, c603fe2721326ac28b73a1a8d578948b
0,         61,         62,        1,     4309, 121bf109c5c7d049efd82af104253af1
0,         62,         63,        1,     4230, 85895931d2846fcefab4e316b4205e63
0,         63,         64,        1,     4131, f0ead7609a5077b2266f29d3cfee4ab6
0,         64,         65,        1,     3940, eb2a14f8d6326049ae2ba8275c292c77
0,         65,         66,        1,     4251, 023dbe6300ec7e66019311dc79f1f642
0,         66,         67,        1,     4020, 0028796594efe26836c7605ce6fd3c9d
0,         67,         68,        1,     4032, 5edb9743760f5cda6177c95e6c7453a1
0,         68,         69,        1,     5078, c8c1e671f1d77a76837c8faa89837ad4
0,         69,         70,        1,     5074, a70f3abbd0785efadfd45fe29cfb5ff4
0,         70,         71,        1,     4602, 40220506405531530d28e054c1b68ebd
0,         71,         72,        1,    14241, d3a9a991aa4a90be29bb0f6f64bd84ee
0,         72,         73,        1,     3467, 32a01103c85b2dfed54170bd206ce679
0,         73,         74,        1,     3852, d3c6d0b6b50ca15a968f379e4fff187f
0,         74,         75,        1,     3892, 83be4cf585d03a50fecfb5d928396e03
0,         75,         76,        1,     4080, acbf69b244b6a04552a3b2d0cfe20958
0,         76,         77,        1,     3426, 5c29f98b2079c8ca9f32d7924953a2e2
0,         77,         78,        1,     3757, 0be8beeeba74ceabe72b004dc047b0b5
0,         78,         79,        1,     4092, c6c1bed06c74f88236140fd3af0c88e2
0,         79,         80,        1,     3916, 7cd98a06b6a05ecf1ca578a581c286ea
0,         80,         81,        1,     3624, 16a610178a313bfc465eab5e12c23528
0,         81,         82,        1,     4207, efe716cbaecf3969eb6e698e054ceeae
0,         82,         83,        1,     3918, 0dc8b40d5cc9d5e4d79b2d4cf3f51be3
0,         83,         84,        1,    13363, 73d4166143c1bbf7247c96e74348273a
0,         84,         85,        1,     3878, 58e6ba25c5be974d6ce0d72695918c9d
0,         85,         86,        1,     3921, 675189831f96b83265500943c4b8d07a
0,         86,         87,        1,     4011, fd6627ace29b3bc162065e4abf9fb8f9
0,         87,         88,        1,     3825, 6fd1f98eece1efaef3890033f59a76fb
0,         88,         89,        1,     3801, bab23cf9bd1740d315e80943a1af2db5
0,         89,         90,        1,     4034, e1912de3d5cf3a9e6ba8c0b4d69869f9
0,         90,         91,        1,     3679, 06d253f9c2c0faf0df0fbd84f0b00f9d
0,         91,         92,        1,     4138, bcd657bc1fc881c3ea30e18523b40f14
0,         92,         93,        1,     5320, 50443c9fd1cbd823d0912b3aacee9025
0,         93,         94,        1,     4862, 47f380fb20952ab49a8e813de6ac8fde
0,         94,         95,        1,     4912, f73de78de9c8fd7426d6687aa539b12e
0,         95,         96,        1,    14598, 1e619d6d52e62525eec2bd64cc0c60d2
0,         96,         97,        1,     3710, ff07ffef75968b04def56625a0b59d02
0,         97,         98,        1,     4248, 96c2174b40c29cc797afed7b6b63b761
0,         98,         99,        1,     4007, e8f71bd99fd1fbd27a0f9baf2f6165d4
0,         99,        100,        1,     4622, 6f0fb369ba9246ea07196f3b92005f75
0,        100,        101,        1,     4188, c4a902a2cbfdc9fe4adaad6da6d8e70d
0,        101,        102,        1,     4339, 201cf52666da8c16d031b7b21a02d2a4
0,        102,        103,        1,     3981, 5e4f2aa8bda9537b745beda132ed1426
0,        103,        104,        1,     4345, fb1627345926013fd287a091272d9984
0,        104,        105,        1,     4819, 5188442104ff21837dbcd4a417531479
0,        105,        106,        1,     4979, a6f43257066571ee1475e1bf28df0c7e
0,        106,        107,        1,     4656, 758d8bb3bab01a21980b1e3a33e15ca4
0,        107,        108,        1,    14849, a2c15f31b1e7633466bbe19e58c9cac3
0,        108,        109,        1,     4397, 4053358cf1d845c7f805b64b117dda07
0,        109,        110,        1,     5150, a431dc6cdeb08cc262bdb986f371cd4f
0,        110,        111,        1,     1664, 823533ea3aeca4fc270c4b68af4aa466
0,        111,        112,        1,      814, b2a9b461dba75f203bdec35fdb89c62b
0,        112,        113,        1,      961, b7512cf9383d045cdcb8431afdb48265
0,        113,        114,        1,      686, 1c06af95f971f0509e49290f8f30a4ba
0,        114,        115,        1,     1292, 71f411a64703d248fc408b8be0af4543
0,        115,        116,        1,     1027, bac5302829a7e239b7783fe5142f3173
0,        116,        117,        1,     3618, 028b817cdb481eedbfc85d2d61989279
0,        117,        118,        1,     3131, c84aad4282c2d0a35a9d023eb6ff04fe
0,        118,        119,        1,     3292, 30c3ea06f57ecae50ae96b569aee3317
0,        119,        120,        1,    16678, 2d57449171c12bfefeb9ec8ed70a81e7
0,        120,        121,        1,     1223, b35d21836af73c6482f025d0f272307f
0,        121,        122,        1,      734, 44eefc96a6e47ee7f87122d8271b4193
0,        122,        123,        1,      719, 4452fbe7a62b0accda3dce3fef13ff80
0,        123,        124,        1,      477, 5936240fb782b0b7f6dea27e973b1ba3
0,        124,        125,        1,      661, 90770553b6a211f6e7000aff48a914c7
